<svg xmlns="http://www.w3.org/2000/svg" width="130" height="130" id="logo"><path fill="#323738" d="m105.132 10.223-12.82-7.344a9.504 9.504 0 0 0-1.801-1.032l-.189-.108-.008.016C86.865.353 82.41.86 77.55 3.665L38.063 26.46c-10.857 6.269-19.738 21.655-19.738 34.193v45.591c0 6.114 2.123 10.45 5.547 12.578l-.033.059 14.246 8.072 8.012-13.949L77.55 94.847c10.855-6.269 19.74-21.655 19.74-34.193V23.876l7.842-13.653z"></path><path fill="#252B2D" d="M105.132 10.223 91.409 7.005c-.561-.409-3.363-.398-4.002-.677L86.39 5.92l-1.832-.34C81.109 4.178 82.41.859 77.55 3.664L38.063 26.46c-10.857 6.269-19.738 21.655-19.738 34.193v45.591c0 6.114 2.123 10.45 5.547 12.578l-.033.059 14.246 8.072 8.012-13.949L77.55 94.847c10.855-6.269 19.74-21.655 19.74-34.193V23.876l7.842-13.653z"></path><path fill="#090C0C" d="M19.077 54.085c-.479 2.231-.752 4.442-.752 6.568v45.591c0 6.114 2.123 10.45 5.547 12.578l-.033.059 14.246 8.072 8.012-13.949L77.55 94.847c1.844-1.065 3.627-2.411 5.322-3.945L19.077 54.085z"></path><path fill="#3B4142" d="M51.634 34.329c-10.857 6.269-19.742 21.655-19.742 34.193v45.591c0 12.538 8.885 17.666 19.742 11.398l39.484-22.796c10.857-6.269 19.742-21.655 19.742-34.193v-45.59c0-12.538-8.885-17.666-19.742-11.398L51.634 34.329z"></path><path fill="#383E3F" d="M110.86 22.932c0-12.538-8.885-17.666-19.742-11.398L51.634 34.329c-10.857 6.269-19.742 21.655-19.742 34.193v45.591c0 12.538 8.885 17.666 19.742 11.398" opacity=".2"></path><path fill="#4F5759" d="M42.864 129h-.002c-7.158 0-11.783-5.844-11.783-14.887V68.522c0-12.829 9.037-28.485 20.146-34.897l39.486-22.796C93.912 8.981 97 8.045 99.889 8.045c7.158 0 11.785 5.844 11.785 14.887v45.591c0 12.829-9.039 28.485-20.148 34.897L52.04 126.216c-3.201 1.847-6.287 2.784-9.176 2.784zM99.89 9.674c-2.6 0-5.414.863-8.363 2.564L52.04 35.033c-10.66 6.156-19.334 21.179-19.334 33.489v45.591c0 8.178 3.891 13.259 10.156 13.259h.002c2.6 0 5.412-.864 8.361-2.565l39.486-22.795c10.66-6.155 19.334-21.179 19.334-33.489V22.932c.001-8.178-3.89-13.258-10.155-13.258z"></path><path fill="#AF0505" d="M51.205 78.949c-.757.436-1.43 1.296-1.899 2.425-1.03 2.539-1.45 8.914-1.083 12.772.134 1.272.347 2.262.65 2.76.412.688 1.109.833 1.914.399.033-.017.064-.034.098-.054.491-.283 1.342-1.083 10.319-9.642l4.283-4.071c1.058-.927 1.777-2.489 1.836-3.984.004-.098.006-.191.004-.282.002.091 0 .185-.004.282-.059 1.495-.778 3.058-1.836 3.984l-4.283 4.071c-8.978 8.559-9.828 9.358-10.319 9.642-.033.02-.064.037-.098.054-.805.434-1.502.288-1.914-.399-.304-.498-.517-1.487-.65-2.76-.367-3.858 1.664-7.429 2.692-9.968.47-1.129 1.144-1.988 1.899-2.427.033-.016.065-.036.098-.052.306-.177.036-1.239 1.848-2.284 1.275-.736 3.585-1.467 7.853-1.876-10.333.989-10.79 1.054-11.311 1.356a3.02 3.02 0 0 0-.097.054M69.74 85.427c-.811.468-1.562 1.287-2.055 2.293l-2.104 4.138c-7.201 14.076-7.501 14.712-7.674 15.399.173-.688 1.35 1.01 8.561-13.083l2.102-4.139c.655-1.349 1.048-4.346 2.048-4.923a.756.756 0 0 1 .265-.093c-.381.05-.768.192-1.143.408M87.982 45.111c-.424.244-.829.621-1.191 1.113-.419.569-.729 1.231-6.543 13.918 3.632-7.93 5.635-10.072 6.725-10.701a2.1 2.1 0 0 1 .671-.257c.173-.042.296-.051.388-.103a.32.32 0 0 0 .087-.078c.36-.49.763-.861 1.185-1.105.37-.213.753-.329 1.136-.34 1.834-.009 4.339 1.646 5.441 3.812-1.356-2.951-4.876-6.595-6.777-6.586a2.278 2.278 0 0 0-1.122.327M69.152 33.993l.032-.011-.032.011m-.93.45c-3.77 2.176-12.546 10.285-14.316 13.443-.628 1.131-.864 2.224-.668 2.953.312.566 13.56 17.174 13.56 17.174 1.377 1.792 2.569 1.599 3.338 1.155.328-.189.58-.428.737-.573.485-.461 1.944-1.836 1.911-5.594.033 3.758-1.426 5.133-1.911 5.594-.157.146-.409.384-.737.573-.769.443-1.961.637-3.338-1.155 0 0-7.733-18.538-8.046-19.106-.195-.729.04-1.811.669-2.952 1.815-3.241 6.311-10.047 9.179-11.702a3.29 3.29 0 0 1 .493-.238c-.247.091-.54.237-.871.428M80.622 75.688c-.774.447-1.551 1.343-2.116 2.5-.811 1.626-.934 3.221-.282 4.002l1.7 2.237c5.733 7.513 6.165 8.033 6.587 8.156.378.134.814.058 1.284-.214.319-.183.653-.458.992-.815 2.419-2.521 7.688-13.432 8.054-16.672-.366 3.24-5.635 14.15-8.054 16.672-.339.357-.673.633-.992.815-.47.271-.906.348-1.284.214-.422-.123-.854-.644-6.587-8.156l-.098-2.152c-.651-.781-.528-2.379.274-3.997.57-1.161 1.344-2.056 2.116-2.501.283-.164.567-.268.841-.301l2.671-.89-4.264.8a2.26 2.26 0 0 0-.842.302"></path><path fill="#CC2414" d="M54.76 79.416c-1.812 1.045-1.542 2.107-1.848 2.284-.032.016-.064.036-.098.052-.756.438-1.43 1.298-1.899 2.427-1.028 2.539-3.06 6.109-2.692 9.968.134 1.272.347 2.262.65 2.76.412.688 1.109.833 1.914.399.033-.017.064-.034.098-.054.491-.283 1.342-1.083 10.319-9.642l4.283-4.071c1.058-.927 1.777-2.489 1.836-3.984.004-.098.006-.191.004-.282-.021-1.366-.673-2.182-1.694-2.044l-3.021.312c-4.267.408-6.577 1.139-7.852 1.875M70.618 85.112c-1 .577-1.393 3.574-2.048 4.923l-2.102 4.139c-7.211 14.093-8.388 12.396-8.561 13.083-.106.41-.152.804-.105 1.146.038.493.24.902.58 1.191 1.574 1.266 8.67.324 11.704-1.428.221-.127.42-.259.593-.394.896-.705 1.543-1.669 1.814-2.708.163-.651.181-1.052.174-12.85l.014-5.268c.069-1.322-.637-2.071-1.799-1.928a.781.781 0 0 0-.264.094M89.303 47.898c-.422.244-.824.615-1.185 1.105a.304.304 0 0 1-.087.078c-.092.052-.215.061-.388.103a2.1 2.1 0 0 0-.671.257c-1.09.629-3.093 2.771-6.725 10.701l-2.655 5.783c-.701 1.393-.697 2.811-.018 3.628.571.692 1.461.772 2.354.258.211-.122.422-.278.629-.467l-.055.147c.539-.552 1.498-1.38 3.251-2.885 10.895-9.373 11.313-9.783 11.742-10.357.657-.895.993-1.96.926-2.984l-.002-.106a4.965 4.965 0 0 0-.541-1.789c-1.103-2.165-3.607-3.82-5.441-3.812a2.422 2.422 0 0 0-1.134.34M68.599 34.253c-2.868 1.655-7.363 8.461-9.179 11.702-.629 1.142-.864 2.224-.669 2.952.312.568 8.046 19.106 8.046 19.106 1.377 1.792 2.569 1.599 3.338 1.155.328-.189.58-.428.737-.573.485-.461 1.944-1.836 1.911-5.594a12.504 12.504 0 0 0-.017-.57c-.197-4.945-1.558-26.659-1.717-27.619-.221-.808-.854-1.117-1.77-.862l-.096.032c-.012.003-.021.007-.032.011-.02.005-.04.013-.061.021-.156.06-.32.14-.491.239M82.217 75.777c-.772.445-1.546 1.34-2.116 2.501-.803 1.618-.926 3.216-.274 3.997l.098 2.152c5.733 7.513 6.165 8.033 6.587 8.156.378.134.814.058 1.284-.214.319-.183.653-.458.992-.815 2.419-2.521 7.688-13.432 8.054-16.672a4 4 0 0 0 .027-.498c0-.846-.285-1.401-.811-1.587-.414-.118-.724-.075-10.329 1.789l-2.671.89a2.246 2.246 0 0 0-.841.301"></path></svg>